<svg version="1.1" id="Capa_1" xmlns="http://www.w3.org/2000/svg" viewBox="0 0 512 512">
    <circle cx="256" cy="256" r="256" stroke="cyan" stroke-width="3" fill="cyan" />
    <g fill="white">
        <path id="svg_3"
            d="m444.98227,415.54724l-32.50812,-57.47849c-15.01373,-26.52982 -22.94708,-56.91653 -22.94708,-87.84448l0,-50.34927c0,-63.56377 -39.987,-117.32652 -94.66647,-134.65874l0,-36.04928c0,-22.15223 -16.98312,-40.16698 -37.86679,-40.16698s-37.86678,18.01475 -37.86678,40.16698l0,36.04927c-54.67859,17.33223 -94.6656,71.09499 -94.6656,134.65875l0,50.34924c0,30.92798 -7.93332,61.29401 -22.92845,87.82471l-32.50807,57.47849c-1.7608,3.11322 -1.79896,6.96924 -0.1136,10.12204c1.68536,3.15274 4.80934,5.10147 8.21732,5.10147l359.73123,0c3.40799,0 6.5506,-1.94778 8.23596,-5.08078c1.68536,-3.13391 1.62857,-7.0304 -0.11356,-10.12292z" />
        <path id="svg_4"
            d="m197.37363,450.83304c10.67836,23.65845 33.28464,40.16696 59.62018,40.16696s48.94275,-16.50851 59.62106,-40.16696l-119.24124,0z" />
    </g>

</svg>